<?xml version="1.0" encoding="UTF-8"?>
<svg width="220px" height="25px" viewBox="0 0 220 25" version="1.1" xmlns="http://www.w3.org/2000/svg" xmlns:xlink="http://www.w3.org/1999/xlink">
    <!-- Generator: Sketch 43.1 (39012) - http://www.bohemiancoding.com/sketch -->
    <title>Group 8</title>
    <desc>Created with Sketch.</desc>
    <defs></defs>
    <g id="Page-1" stroke="none" stroke-width="1" fill="none" fill-rule="evenodd">
        <g id="Desktop-HD" transform="translate(-213.000000, -30.000000)" fill="#FFFFFF">
            <g id="Group-8" transform="translate(213.000000, 30.000000)">
                <path d="M2.00597429,11.1862566 L2.00597429,18.3605647 L0,18.3605647 L0,1.10918579 L4.73173936,1.10918579 C6.84785616,1.10918579 8.41132049,1.51430988 9.42217925,2.32457021 C10.433038,3.13483054 10.9384598,4.35413606 10.9384598,5.98252333 C10.9384598,8.26383884 9.78208621,9.80567033 7.46930428,10.6080641 L12.1538442,18.3605647 L9.78207464,18.3605647 L5.60492817,11.1862566 L2.00597429,11.1862566 Z M2.00597429,9.46347872 L4.75533906,9.46347872 C6.17132799,9.46347872 7.2097043,9.18225181 7.87049914,8.61978954 C8.53129397,8.05732727 8.86168644,7.21364651 8.86168644,6.08872197 C8.86168644,4.94806422 8.52539411,4.12601631 7.85279937,3.62255358 C7.18020462,3.11909084 6.10052926,2.86736325 4.61374087,2.86736325 L2.00597429,2.86736325 L2.00597429,9.46347872 Z M21.5495132,18.3605647 L21.1601182,16.5197883 L21.0657194,16.5197883 C20.4206578,17.3300486 19.7775725,17.8787361 19.1364441,18.1658672 C18.4953158,18.4529983 17.6949007,18.5965617 16.7351749,18.5965617 C15.4529183,18.5965617 14.4479745,18.2661692 13.7203135,17.6053744 C12.9926526,16.9445795 12.6288275,16.0045343 12.6288275,14.7852105 C12.6288275,12.1734976 14.7173799,10.8047288 18.8945472,10.6788631 L21.0893191,10.6080641 L21.0893191,9.80567434 C21.0893191,8.79088227 20.8710241,8.04159937 20.4344275,7.55780315 C19.9978309,7.07400693 19.2996802,6.83211245 18.3399543,6.83211245 C17.2622294,6.83211245 16.0429239,7.16250491 14.6820012,7.82329974 L14.0802089,6.32471895 C14.717404,5.97858832 15.4155547,5.70719451 16.1746821,5.51052938 C16.9338095,5.31386425 17.6948921,5.21553316 18.4579528,5.21553316 C19.9998074,5.21553316 21.1424147,5.55772536 21.8858089,6.24212001 C22.6292031,6.92651466 23.0008946,8.02388962 23.0008946,9.53427782 L23.0008946,18.3605647 L21.5495132,18.3605647 Z M17.1245699,16.9799824 C18.3438937,16.9799824 19.3016385,16.6456567 19.9978331,15.9769953 C20.6940277,15.3083338 21.0421197,14.3722218 21.0421197,13.1686312 L21.0421197,12.0004462 L19.0833448,12.0830452 C17.525757,12.1381114 16.4028159,12.3800059 15.714488,12.8087359 C15.02616,13.2374658 14.6820012,13.9041506 14.6820012,14.8088102 C14.6820012,15.5168047 14.896363,16.0556591 15.325093,16.4253895 C15.753823,16.79512 16.3536426,16.9799824 17.1245699,16.9799824 Z M34.8391323,18.3605647 L34.8391323,9.99447192 C34.8391323,8.94034682 34.5992044,8.15369811 34.1193415,7.63450216 C33.6394786,7.11530622 32.8882291,6.85571214 31.8655704,6.85571214 C30.5125143,6.85571214 29.5213369,7.2215038 28.8920085,7.95309808 C28.2626801,8.68469236 27.9480206,9.89219815 27.9480206,11.5756517 L27.9480206,18.3605647 L25.9892457,18.3605647 L25.9892457,5.42793044 L27.5822253,5.42793044 L27.9008212,7.19790776 L27.99522,7.19790776 C28.3964168,6.56071274 28.9588707,6.06709067 29.6825984,5.71702674 C30.406326,5.3669628 31.212641,5.19193346 32.1015674,5.19193346 C33.6591552,5.19193346 34.8312618,5.56755823 35.6179223,6.31881902 C36.4045828,7.07007982 36.7979072,8.27168574 36.7979072,9.92367283 L36.7979072,18.3605647 L34.8391323,18.3605647 Z M44.9427922,18.5965617 C43.0705401,18.5965617 41.6211399,18.0203415 40.5945479,16.8678838 C39.5679559,15.7154262 39.0546676,14.0850967 39.0546676,11.9768465 C39.0546676,9.81353009 39.5758224,8.14190156 40.6181476,6.96191078 C41.6604728,5.78192 43.1452722,5.19193346 45.0725905,5.19193346 C45.6940523,5.19193346 46.3155048,5.25879861 46.9369666,5.39253089 C47.5584284,5.52626318 48.0461506,5.68359293 48.4001479,5.86452485 L47.7983556,7.52830352 C47.3656923,7.35523821 46.8937031,7.21167482 46.3823737,7.09760904 C45.8710444,6.98354327 45.4187214,6.92651124 45.0253911,6.92651124 C42.397945,6.92651124 41.0842416,8.60207301 41.0842416,11.9532468 C41.0842416,13.5423011 41.404801,14.7616066 42.0459293,15.6111999 C42.6870576,16.4607933 43.6369359,16.8855836 44.8955928,16.8855836 C45.9733177,16.8855836 47.0785591,16.6535222 48.2113503,16.1893925 L48.2113503,17.9239703 C47.3460237,18.3723668 46.2565152,18.5965617 44.9427922,18.5965617 Z M59.0820003,18.3605647 L59.0820003,9.99447192 C59.0820003,8.94034682 58.8420725,8.15369811 58.3622096,7.63450216 C57.8823467,7.11530622 57.1310971,6.85571214 56.1084385,6.85571214 C54.7475158,6.85571214 53.7543717,7.22543704 53.1289766,7.96489793 C52.5035815,8.70435882 52.1908887,9.91579784 52.1908887,11.5992514 L52.1908887,18.3605647 L50.2321138,18.3605647 L50.2321138,0 L52.1908887,0 L52.1908887,5.55772878 C52.1908887,6.22639022 52.1594227,6.78097757 52.0964899,7.22150746 L52.2144884,7.22150746 C52.599952,6.60004565 53.1486395,6.11035682 53.8605673,5.75242628 C54.572495,5.39449575 55.3847098,5.21553316 56.297236,5.21553316 C57.8784237,5.21553316 59.0642966,5.59115793 59.8548904,6.34241872 C60.6454843,7.09367952 61.0407752,8.28741895 61.0407752,9.92367283 L61.0407752,18.3605647 L59.0820003,18.3605647 Z M65.9761014,18.3605647 L64.0173265,18.3605647 L64.0173265,5.42793044 L65.9761014,5.42793044 L65.9761014,18.3605647 Z M63.8521286,1.92337535 C63.8521286,1.47497886 63.9622594,1.14655302 64.1825244,0.938087978 C64.4027893,0.729622941 64.6781164,0.625391986 65.0085138,0.625391986 C65.323178,0.625391986 65.5945718,0.731589563 65.8227033,0.943987903 C66.0508349,1.15638624 66.1648989,1.48284546 66.1648989,1.92337535 C66.1648989,2.36390524 66.0508349,2.69233108 65.8227033,2.90866273 C65.5945718,3.12499437 65.323178,3.23315857 65.0085138,3.23315857 C64.6781164,3.23315857 64.4027893,3.12499437 64.1825244,2.90866273 C63.9622594,2.69233108 63.8521286,2.36390524 63.8521286,1.92337535 Z M77.0119493,18.3605647 L71.1592243,3.06796068 L71.0648255,3.06796068 C71.174958,4.27941788 71.2300234,5.71898504 71.2300234,7.38670534 L71.2300234,18.3605647 L69.3774472,18.3605647 L69.3774472,1.10918579 L72.3982084,1.10918579 L77.8615384,15.3398034 L77.9559372,15.3398034 L83.4664666,1.10918579 L86.4636282,1.10918579 L86.4636282,18.3605647 L84.4576539,18.3605647 L84.4576539,7.24510715 C84.4576539,5.97071711 84.5127193,4.58621537 84.6228518,3.09156038 L84.528453,3.09156038 L78.6285286,18.3605647 L77.0119493,18.3605647 Z M97.8062722,18.3605647 L97.4168772,16.5197883 L97.3224784,16.5197883 C96.6774168,17.3300486 96.0343315,17.8787361 95.3932031,18.1658672 C94.7520748,18.4529983 93.9516597,18.5965617 92.9919339,18.5965617 C91.7096773,18.5965617 90.7047335,18.2661692 89.9770725,17.6053744 C89.2494116,16.9445795 88.8855865,16.0045343 88.8855865,14.7852105 C88.8855865,12.1734976 90.9741389,10.8047288 95.1513062,10.6788631 L97.3460781,10.6080641 L97.3460781,9.80567434 C97.3460781,8.79088227 97.1277831,8.04159937 96.6911865,7.55780315 C96.2545899,7.07400693 95.5564392,6.83211245 94.5967133,6.83211245 C93.5189884,6.83211245 92.2996829,7.16250491 90.9387602,7.82329974 L90.3369679,6.32471895 C90.9741629,5.97858832 91.6723137,5.70719451 92.4314411,5.51052938 C93.1905685,5.31386425 93.9516511,5.21553316 94.7147118,5.21553316 C96.2565664,5.21553316 97.3991737,5.55772536 98.1425679,6.24212001 C98.8859621,6.92651466 99.2576536,8.02388962 99.2576536,9.53427782 L99.2576536,18.3605647 L97.8062722,18.3605647 Z M93.3813289,16.9799824 C94.6006527,16.9799824 95.5583975,16.6456567 96.2545921,15.9769953 C96.9507867,15.3083338 97.2988787,14.3722218 97.2988787,13.1686312 L97.2988787,12.0004462 L95.3401038,12.0830452 C93.782516,12.1381114 92.6595749,12.3800059 91.971247,12.8087359 C91.282919,13.2374658 90.9387602,13.9041506 90.9387602,14.8088102 C90.9387602,15.5168047 91.153122,16.0556591 91.581852,16.4253895 C92.010582,16.79512 92.6104016,16.9799824 93.3813289,16.9799824 Z M104.20478,18.3605647 L102.246005,18.3605647 L102.246005,0 L104.20478,0 L104.20478,18.3605647 Z M109.269904,18.3605647 L107.311129,18.3605647 L107.311129,0 L109.269904,0 L109.269904,18.3605647 Z M122.406125,18.3605647 L112.163856,18.3605647 L112.163856,1.10918579 L122.406125,1.10918579 L122.406125,4.84973785 L116.824797,4.84973785 L116.824797,7.56370307 L121.99313,7.56370307 L121.99313,11.3042551 L116.824797,11.3042551 L116.824797,14.5610134 L122.406125,14.5610134 L122.406125,18.3605647 Z M126.940256,11.5402521 L122.857509,4.99133604 L128.096642,4.99133604 L130.126216,8.74368795 L132.202989,4.99133604 L137.453922,4.99133604 L133.264975,11.5402521 L137.619119,18.3605647 L132.379987,18.3605647 L130.126216,14.3014167 L127.884244,18.3605647 L122.633312,18.3605647 L126.940256,11.5402521 Z M143.887829,18.5965617 C141.700912,18.5965617 140.04305,18.0065751 138.914192,16.8265844 C137.785334,15.6465936 137.220914,13.9513656 137.220914,11.7408495 C137.220914,9.52246688 137.830567,7.80363943 139.049891,6.58431562 C140.269214,5.36499182 142.003775,4.75533906 144.253624,4.75533906 C145.803345,4.75533906 147.262578,5.09359801 148.631368,5.77012606 L147.274385,9.18028235 C146.715856,8.93641759 146.200601,8.74172204 145.728605,8.59618984 C145.256609,8.45065764 144.764953,8.37789264 144.253624,8.37789264 C143.506296,8.37789264 142.92811,8.66895266 142.519046,9.25108145 C142.109983,9.83321023 141.905454,10.6552581 141.905454,11.7172498 C141.905454,13.8569665 142.696036,14.9268087 144.277224,14.9268087 C145.63028,14.9268087 146.92825,14.5334844 148.171174,13.7468238 L148.171174,17.4165768 C146.983316,18.2032373 145.555549,18.5965617 143.887829,18.5965617 Z M158.192235,18.3605647 L158.192235,11.0682582 C158.192235,9.27467218 157.661247,8.37789264 156.599255,8.37789264 C155.844061,8.37789264 155.287507,8.69451875 154.929576,9.32778046 C154.571646,9.96104218 154.392683,11.0131848 154.392683,12.48424 L154.392683,18.3605647 L149.778942,18.3605647 L149.778942,0 L154.392683,0 L154.392683,2.60776658 C154.392683,3.78775736 154.329751,5.13292667 154.203886,6.64331487 L154.416283,6.64331487 C154.856813,5.95105361 155.379934,5.4633314 155.985663,5.18013362 C156.591391,4.89693583 157.295442,4.75533906 158.097836,4.75533906 C159.592491,4.75533906 160.754764,5.18602923 161.584691,6.0474225 C162.414618,6.90881577 162.829575,8.11435493 162.829575,9.66407615 L162.829575,18.3605647 L158.192235,18.3605647 Z M173.641226,18.3605647 L172.756237,16.5905874 L172.661839,16.5905874 C172.040377,17.3615147 171.407124,17.8885693 170.762063,18.1717671 C170.117001,18.4549649 169.283154,18.5965617 168.260495,18.5965617 C167.001838,18.5965617 166.010661,18.2189703 165.286933,17.4637762 C164.563205,16.7085821 164.201347,15.6466063 164.201347,14.277817 C164.201347,12.8539615 164.696936,11.7939523 165.688128,11.0977578 C166.67932,10.4015632 168.114954,10.0102055 169.995073,9.92367283 L172.225244,9.85287373 L172.225244,9.66407615 C172.225244,8.56275143 171.682457,8.01209732 170.596865,8.01209732 C169.621406,8.01209732 168.382434,8.34248979 166.879913,9.00328462 L165.54653,5.95892364 C167.104118,5.15652991 169.070739,4.75533906 171.446454,4.75533906 C173.161374,4.75533906 174.488844,5.18012937 175.428903,6.02972273 C176.368962,6.87931609 176.838985,8.06715565 176.838985,9.59327706 L176.838985,18.3605647 L173.641226,18.3605647 Z M170.21927,15.3398034 C170.777799,15.3398034 171.255688,15.1628075 171.652951,14.8088102 C172.050215,14.454813 172.248844,13.9946235 172.248844,13.4282279 L172.248844,12.3898412 L171.186857,12.4370406 C169.668603,12.4921069 168.909487,13.0506274 168.909487,14.1126191 C168.909487,14.9307461 169.346077,15.3398034 170.21927,15.3398034 Z M187.367439,18.3605647 L187.367439,11.0682582 C187.367439,10.1793318 187.239609,9.50871374 186.983944,9.05638394 C186.72828,8.60405414 186.317256,8.37789264 185.75086,8.37789264 C184.972066,8.37789264 184.409612,8.68861888 184.063482,9.31008069 C183.717351,9.9315425 183.544288,10.9974515 183.544288,12.5078397 L183.544288,18.3605647 L178.930548,18.3605647 L178.930548,4.99133604 L182.411503,4.99133604 L182.989696,6.64331487 L183.261092,6.64331487 C183.654422,6.01398645 184.199177,5.54199722 184.895371,5.22733301 C185.591566,4.9126688 186.391981,4.75533906 187.29664,4.75533906 C188.775562,4.75533906 189.926036,5.18406261 190.748096,6.04152258 C191.570156,6.89898254 191.98118,8.10648833 191.98118,9.66407615 L191.98118,18.3605647 L187.367439,18.3605647 Z M206.686781,4.99133604 L206.686781,7.22150746 L204.857805,7.89409884 C205.109536,8.35036194 205.2354,8.88134982 205.2354,9.48707842 C205.2354,10.9266672 204.729978,12.0437084 203.719119,12.8382355 C202.708261,13.6327626 201.199862,14.0300202 199.193877,14.0300202 C198.698281,14.0300202 198.304957,13.9985543 198.013892,13.9356214 C197.90376,14.1401531 197.848694,14.3328821 197.848694,14.513814 C197.848694,14.7419456 198.033557,14.9169749 198.403287,15.0389073 C198.773018,15.1608397 199.256807,15.2218049 199.854669,15.2218049 L202.07304,15.2218049 C205.070217,15.2218049 206.568783,16.4843761 206.568783,19.0095564 C206.568783,20.6379437 205.874565,21.9044481 204.486109,22.8091077 C203.097654,23.7137673 201.148731,24.1660903 198.639284,24.1660903 C196.743433,24.1660903 195.282233,23.8494642 194.255641,23.2162025 C193.229049,22.5829408 192.71576,21.6723949 192.71576,20.4845375 C192.71576,18.8876166 193.706938,17.8571068 195.689322,17.3929771 C195.280259,17.2199118 194.9243,16.9406515 194.621436,16.5551878 C194.318572,16.1697242 194.167142,15.7881996 194.167142,15.4106025 C194.167142,14.9936724 194.281206,14.6259142 194.509337,14.3073167 C194.737469,13.9887191 195.213391,13.6091611 195.937119,13.1686312 C195.244858,12.8618336 194.700104,12.3819779 194.30284,11.7290497 C193.905576,11.0761215 193.706948,10.2816063 193.706948,9.34548024 C193.706948,7.89015828 194.202536,6.76131737 195.193729,5.95892364 C196.184921,5.15652991 197.600888,4.75533906 199.441674,4.75533906 C199.685539,4.75533906 200.106396,4.78287177 200.704258,4.837938 C201.30212,4.89300424 201.742643,4.9441364 202.025841,4.99133604 L206.686781,4.99133604 Z M196.60971,20.0243434 C196.60971,20.4019404 196.814239,20.7067668 197.223303,20.9388317 C197.632366,21.1708965 198.179087,21.2869272 198.863481,21.2869272 C199.980539,21.2869272 200.875352,21.1472971 201.547947,20.8680326 C202.220542,20.5887681 202.556834,20.2288763 202.556834,19.7883464 C202.556834,19.4343492 202.352305,19.1845882 201.943242,19.039056 C201.534179,18.8935238 200.948125,18.8207588 200.185065,18.8207588 L198.379688,18.8207588 C197.884092,18.8207588 197.465201,18.9367895 197.123004,19.1688543 C196.780806,19.4009192 196.60971,19.6860794 196.60971,20.0243434 Z M198.061092,9.36907993 C198.061092,10.7378692 198.537014,11.4222536 199.488873,11.4222536 C199.929403,11.4222536 200.269629,11.2531241 200.50956,10.9148601 C200.749492,10.5765961 200.869456,10.0692077 200.869456,9.39267963 C200.869456,8.00815712 200.409266,7.31590625 199.488873,7.31590625 C198.537014,7.31590625 198.061092,8.00029063 198.061092,9.36907993 Z M214.123675,18.5965617 C211.897426,18.5965617 210.168765,18.0046085 208.937642,16.8206844 C207.706518,15.6367604 207.090965,13.9513655 207.090965,11.7644492 C207.090965,9.50673355 207.661286,7.77413974 208.801944,6.56661585 C209.942601,5.35909195 211.570964,4.75533906 213.687081,4.75533906 C215.700932,4.75533906 217.25653,5.28042708 218.353921,6.33061887 C219.451313,7.38081067 220,8.89314283 220,10.8676607 L220,12.9208344 L211.751906,12.9208344 C211.783372,13.6681619 212.056733,14.2542152 212.571995,14.6790119 C213.087258,15.1038086 213.789342,15.3162037 214.678268,15.3162037 C215.488529,15.3162037 216.233878,15.2395055 216.91434,15.0861067 C217.594801,14.9327079 218.332284,14.6711472 219.126811,14.3014167 L219.126811,17.6171742 C218.403084,17.9869047 217.655767,18.2425655 216.88484,18.3841644 C216.113913,18.5257633 215.193534,18.5965617 214.123675,18.5965617 Z M213.852279,7.89409884 C213.309483,7.89409884 212.855193,8.06519493 212.489396,8.40739226 C212.123599,8.74958958 211.909237,9.28647733 211.846304,10.0180716 L215.811054,10.0180716 C215.79532,9.37300999 215.612425,8.85775508 215.262361,8.47229143 C214.912297,8.08682777 214.442274,7.89409884 213.852279,7.89409884 Z" id="RanchiMallExchange"></path>
            </g>
        </g>
    </g>
</svg>